<svg xmlns="http://www.w3.org/2000/svg" viewBox="0 0 280 420">
  <defs>
    <linearGradient id="bg4" x1="0%" y1="0%" x2="0%" y2="100%">
      <stop offset="0%" style="stop-color:#607080;stop-opacity:1"/>
      <stop offset="100%" style="stop-color:#2a2a3a;stop-opacity:1"/>
    </linearGradient>
  </defs>
  <rect width="280" height="420" fill="url(#bg4)"/>
  <!-- Brutalist building -->
  <rect x="80" y="100" width="120" height="140" fill="#404854"/>
  <rect x="90" y="110" width="20" height="25" fill="#222"/>
  <rect x="120" y="110" width="20" height="25" fill="#222"/>
  <rect x="150" y="110" width="20" height="25" fill="#222"/>
  <rect x="90" y="145" width="20" height="25" fill="#222"/>
  <rect x="120" y="145" width="20" height="25" fill="#222"/>
  <rect x="150" y="145" width="20" height="25" fill="#222"/>
  <rect x="90" y="180" width="20" height="25" fill="#222"/>
  <rect x="120" y="180" width="20" height="25" fill="#222"/>
  <rect x="150" y="180" width="20" height="25" fill="#222"/>
  <rect x="125" y="210" width="30" height="30" fill="#f5c518" opacity="0.5"/>
  <text x="140" y="290" font-family="Georgia, serif" font-size="18" fill="#ffffff" text-anchor="middle" font-weight="bold">THE BRUTALIST</text>
  <text x="140" y="315" font-family="Arial, sans-serif" font-size="13" fill="#f5c518" text-anchor="middle">Brady Corbet</text>
  <text x="140" y="340" font-family="Arial, sans-serif" font-size="12" fill="#888" text-anchor="middle">Drama | 2023 | 215 min</text>
  <rect x="105" y="355" width="70" height="28" rx="4" fill="#f5c518"/>
  <text x="140" y="374" font-family="Arial, sans-serif" font-size="14" fill="#1a1a2e" text-anchor="middle" font-weight="bold">8.1</text>
</svg>
